<svg xmlns="http://www.w3.org/2000/svg" width="150" height="32">
  <g fill="none" fill-rule="evenodd">
    <rect width="35" height="31" x=".5" y=".5" fill="#5F5CFF" stroke="#5F5CFF" rx="4"/>
    <path fill="#FFF" d="M17.9821362 6 24 12.1195009l-1.0763302 1.3865344L17.9524621 27l-2.9616705-9.4201443L12 12.0454987 17.9821362 6ZM21.437 15.304l-3.0699617 3.8025035L18.367 23.637l3.07-8.333Zm-3.234-7.969-2.44 10.127 1.832 5.825.0005435-4.4620142L22.963 12.176l-4.76-4.841Zm-.906.464-4.3405838 4.3867947L15.228 16.389l2.069-8.59Z"/>
    <g fill-rule="nonzero">
      <path fill="#1A1B23" d="M51.82 25.32v-4.1l-.16-1.44h.16c.26666667.44.67.8066667 1.21 1.1.54.2933333 1.15666667.44 1.85.44.92 0 1.75666667-.23 2.51-.69.75333333-.46 1.34333333-1.1 1.77-1.92.4266667-.82.64-1.7566667.64-2.81 0-1.04-.2133333-1.97333333-.64-2.8-.42666667-.82666667-1.01666667-1.47-1.77-1.93-.75333333-.46-1.59-.69-2.51-.69-.69333333 0-1.30666667.15-1.84.45-.53333333.3-.94.67-1.22 1.11h-.16V10.8H49.2v14.52h2.62Zm2.6-6.42c-.48 0-.93333333-.1266667-1.36-.38-.42666667-.2533333-.76666667-.6066667-1.02-1.06-.25333333-.4533333-.38-.9733333-.38-1.56 0-.58666667.12666667-1.10666667.38-1.56s.59333333-.80333333 1.02-1.05c.42666667-.24666667.88-.37 1.36-.37.49333333 0 .95333333.12333333 1.38.37.42666667.24666667.76666667.59666667 1.02 1.05.25333333.45333333.38.97333333.38 1.56 0 .5866667-.12666667 1.1066667-.38 1.56-.25333333.4533333-.59333333.8066667-1.02 1.06-.42666667.2533333-.88666667.38-1.38.38Zm12.28 2.42c1.04 0 1.9733333-.2366667 2.8-.71.8266667-.4733333 1.47-1.12 1.93-1.94.46-.82.69-1.7433333.69-2.77 0-1.01333333-.23-1.93333333-.69-2.76-.46-.82666667-1.1033333-1.47666667-1.93-1.95-.8266667-.47333333-1.76-.71-2.8-.71-1.0533333 0-1.9933333.23666667-2.82.71-.8266667.47333333-1.47 1.12333333-1.93 1.95-.46.82666667-.69 1.74666667-.69 2.76 0 1.0266667.23 1.95.69 2.77.46.82 1.1033333 1.4666667 1.93 1.94.8266667.4733333 1.7666667.71 2.82.71Zm0-2.42c-.5066667 0-.9733333-.12-1.4-.36-.4266667-.24-.77-.59-1.03-1.05-.26-.46-.39-.99-.39-1.59 0-.6.13-1.12666667.39-1.58s.6033333-.8 1.03-1.04c.4266667-.24.8933333-.36 1.4-.36.5066667 0 .9733333.12 1.4.36.4266667.24.7666667.58666667 1.02 1.04.2533333.45333333.38.98.38 1.58 0 .6133333-.1266667 1.1466667-.38 1.6-.2533333.4533333-.5933333.8-1.02 1.04-.4266667.24-.8933333.36-1.4.36ZM76.74 21V6.68h-2.62V21h2.62Zm6.4 4.32 6.3-14.52h-2.92l-2.54 6.34h-.16l-2.64-6.34H78.2l4.3 9.72-2.18 4.8h2.82Zm12.44.32c1.0533333 0 1.9733333-.2166667 2.76-.65.7866667-.4333333 1.3933333-1.05 1.82-1.85.4266667-.8.64-1.7466667.64-2.84v-9.5h-2.52v1.08h-.16c-.32-.45333333-.74-.8-1.26-1.04s-1.1133333-.36-1.78-.36c-.84 0-1.6233333.21666667-2.35.65s-1.31 1.04666667-1.75 1.84c-.44.79333333-.66 1.71666667-.66 2.77 0 1.0533333.22 1.9766667.66 2.77.44.7933333 1.0233333 1.4066667 1.75 1.84.7266667.4333333 1.51.65 2.35.65.6666667 0 1.26-.12 1.78-.36s.94-.5866667 1.26-1.04h.16v.8c0 .9333333-.2433333 1.6533333-.73 2.16-.4866667.5066667-1.1433333.76-1.97.76-.56 0-1.06-.1466667-1.5-.44-.44-.2933333-.7666667-.6933333-.98-1.2l-2.46 1c.2933333.8133333.8666667 1.51 1.72 2.09.8533333.58 1.9266667.87 3.22.87Zm.04-7.02c-.7466667 0-1.38-.2533333-1.9-.76s-.78-1.2133333-.78-2.12c0-.90666667.26-1.61333333.78-2.12.52-.50666667 1.1533333-.76 1.9-.76s1.3766667.25 1.89.75.77 1.21.77 2.13c0 .8933333-.26 1.5966667-.78 2.11-.52.5133333-1.1466667.77-1.88.77Zm12.62 2.7c1.04 0 1.9733333-.2366667 2.8-.71.8266667-.4733333 1.47-1.12 1.93-1.94.46-.82.69-1.7433333.69-2.77 0-1.01333333-.23-1.93333333-.69-2.76-.46-.82666667-1.1033333-1.47666667-1.93-1.95-.8266667-.47333333-1.76-.71-2.8-.71-1.0533333 0-1.9933333.23666667-2.82.71-.8266667.47333333-1.47 1.12333333-1.93 1.95-.46.82666667-.69 1.74666667-.69 2.76 0 1.0266667.23 1.95.69 2.77.46.82 1.1033333 1.4666667 1.93 1.94.8266667.4733333 1.7666667.71 2.82.71Zm0-2.42c-.5066667 0-.9733333-.12-1.4-.36-.4266667-.24-.77-.59-1.03-1.05-.26-.46-.39-.99-.39-1.59 0-.6.13-1.12666667.39-1.58s.6033333-.8 1.03-1.04c.4266667-.24.8933333-.36 1.4-.36.5066667 0 .9733333.12 1.4.36.4266667.24.7666667.58666667 1.02 1.04.2533333.45333333.38.98.38 1.58 0 .6133333-.1266667 1.1466667-.38 1.6-.2533333.4533333-.5933333.8-1.02 1.04-.4266667.24-.8933333.36-1.4.36Zm10.04 2.1v-5.2c0-.82666667.2166667-1.51333333.65-2.06.4333333-.54666667 1.0033333-.82 1.71-.82.6 0 1.0666667.18 1.4.54.3333333.36.5.86666667.5 1.52V21h2.62v-6.34c0-1.29333333-.32-2.31333333-.96-3.06-.64-.74666667-1.5733333-1.12-2.8-1.12-.6533333 0-1.26.14333333-1.82.43s-.9933333.67666667-1.3 1.17h-.16V10.8h-2.46V21h2.62Z"/>
      <path fill="#6B6B6B" d="M129.22 21.12c.48 0 .89-.17 1.23-.51.34-.34.51-.75.51-1.23s-.17-.8866667-.51-1.22c-.34-.3333333-.75-.5-1.23-.5s-.89.1666667-1.23.5c-.34.3333333-.51.74-.51 1.22s.17.89.51 1.23c.34.34.75.51 1.23.51Zm5.62-11.44c.4666667 0 .8633333-.16666667 1.19-.5s.49-.73333333.49-1.2c0-.46666667-.1633333-.86333333-.49-1.19-.3266667-.32666667-.7233333-.49-1.19-.49s-.8666667.16333333-1.2.49c-.3333333.32666667-.5.72333333-.5 1.19 0 .46666667.1666667.86666667.5 1.2s.7333333.5 1.2.5Zm1.3 11.32V10.8h-2.62V21h2.62Zm7.62.32c1.04 0 1.9733333-.2366667 2.8-.71.8266667-.4733333 1.47-1.12 1.93-1.94.46-.82.69-1.7433333.69-2.77 0-1.01333333-.23-1.93333333-.69-2.76-.46-.82666667-1.1033333-1.47666667-1.93-1.95-.8266667-.47333333-1.76-.71-2.8-.71-1.0533333 0-1.9933333.23666667-2.82.71-.8266667.47333333-1.47 1.12333333-1.93 1.95-.46.82666667-.69 1.74666667-.69 2.76 0 1.0266667.23 1.95.69 2.77.46.82 1.1033333 1.4666667 1.93 1.94.8266667.4733333 1.7666667.71 2.82.71Zm0-2.42c-.5066667 0-.9733333-.12-1.4-.36-.4266667-.24-.77-.59-1.03-1.05-.26-.46-.39-.99-.39-1.59 0-.6.13-1.12666667.39-1.58s.6033333-.8 1.03-1.04c.4266667-.24.8933333-.36 1.4-.36.5066667 0 .9733333.12 1.4.36.4266667.24.7666667.58666667 1.02 1.04.2533333.45333333.38.98.38 1.58 0 .6133333-.1266667 1.1466667-.38 1.6-.2533333.4533333-.5933333.8-1.02 1.04-.4266667.24-.8933333.36-1.4.36Z"/>
    </g>
  </g>
</svg>
