<svg xmlns="http://www.w3.org/2000/svg" xmlns:xlink="http://www.w3.org/1999/xlink" width="431" zoomAndPan="magnify" viewBox="0 0 323.25 324.749995" height="433" preserveAspectRatio="xMidYMid meet" version="1.0"><defs><clipPath id="2a600e8423"><path d="M 0.5625 67 L 321.570312 67 L 321.570312 323.800781 L 0.5625 323.800781 Z M 0.5625 67 " clip-rule="nonzero"/></clipPath><clipPath id="bc3ce27f20"><path d="M 203.5 77.214844 L 213.578125 77.214844 L 213.578125 88.671875 L 203.5 88.671875 Z M 203.5 77.214844 " clip-rule="nonzero"/></clipPath></defs><path fill="#b17d57" d="M 262.992188 113.867188 C 262.378906 111.480469 261.628906 109.121094 260.785156 106.800781 L 260.796875 106.804688 C 258.3125 98.574219 251.460938 88.214844 248.539062 84.019531 C 248.125 83.363281 247.6875 82.71875 247.191406 82.121094 C 229.496094 57.320312 196.371094 46.542969 196.371094 46.542969 C 181.226562 41.464844 167.210938 40.066406 155.492188 40.351562 C 155.238281 40.328125 154.984375 40.308594 154.730469 40.292969 C 153.847656 40.238281 152.972656 40.238281 152.105469 40.289062 C 152.042969 40.265625 152.003906 40.25 152.003906 40.25 L 152.027344 40.292969 C 150.636719 40.371094 149.261719 40.554688 147.890625 40.789062 C 131.613281 42.230469 121.359375 46.550781 121.359375 46.550781 C 117.472656 47.738281 113.808594 49.136719 110.359375 50.695312 C 110.152344 50.738281 109.941406 50.789062 109.75 50.878906 C 107.957031 51.761719 106.203125 52.730469 104.402344 53.605469 C 102.714844 54.429688 101.113281 55.382812 99.582031 56.4375 C 81.636719 67.574219 71.304688 82.226562 67.707031 87.980469 C 67.707031 87.980469 61.511719 95.734375 55.769531 110.210938 C 55.253906 111.4375 54.75 112.675781 54.265625 113.917969 C 54.019531 114.539062 53.847656 115.195312 53.6875 115.84375 C 53.191406 117.285156 52.707031 118.78125 52.238281 120.328125 C 51.957031 121.238281 51.675781 122.152344 51.398438 123.070312 C 50.660156 125.5625 49.832031 128.039062 49.234375 130.574219 C 48.605469 133.214844 48.097656 135.894531 47.722656 138.582031 C 44.03125 168.515625 53.03125 192.652344 55.253906 198.039062 C 55.414062 198.414062 55.570312 198.796875 55.738281 199.171875 C 55.988281 199.75 56.246094 200.320312 56.53125 200.886719 C 57.503906 202.820312 58.457031 204.777344 59.429688 206.710938 C 60.007812 208.074219 61.53125 211.378906 64.355469 215.742188 C 64.390625 215.808594 64.425781 215.863281 64.46875 215.925781 C 64.871094 216.578125 65.308594 217.207031 65.761719 217.828125 C 69.929688 223.851562 76.371094 231.40625 85.851562 238.636719 C 85.898438 238.6875 85.941406 238.738281 86 238.777344 C 88.09375 240.332031 90.121094 242.035156 92.371094 243.332031 C 92.371094 243.332031 105.949219 253.699219 126.714844 259.128906 C 129.015625 259.855469 131.40625 260.332031 133.8125 260.71875 C 136.171875 261.15625 138.597656 261.53125 141.097656 261.804688 C 146.785156 262.792969 171.007812 266.320312 194.410156 259.144531 C 196.054688 258.671875 197.667969 258.097656 199.277344 257.484375 C 199.453125 257.421875 199.628906 257.351562 199.8125 257.28125 C 200.710938 256.933594 201.601562 256.582031 202.488281 256.226562 C 204.371094 255.480469 206.25 254.703125 208.097656 253.882812 L 208.089844 253.890625 C 208.089844 253.890625 208.183594 253.847656 208.351562 253.769531 C 209.734375 253.15625 211.113281 252.519531 212.46875 251.84375 C 213.703125 251.222656 214.867188 250.472656 216.015625 249.6875 C 219.757812 247.515625 224.457031 244.527344 229.324219 240.792969 C 230.335938 240.132812 231.257812 239.363281 232.140625 238.558594 C 236.429688 235.042969 240.730469 230.960938 244.496094 226.363281 C 244.582031 226.273438 244.667969 226.1875 244.742188 226.097656 C 261.496094 205.519531 265.214844 185.675781 266.011719 178.996094 C 266.386719 176.941406 266.65625 174.851562 266.894531 172.773438 C 266.902344 172.695312 266.910156 172.625 266.914062 172.550781 C 271.777344 140.714844 262.992188 113.867188 262.992188 113.867188 Z M 155.625 192.675781 C 154.121094 192.539062 152.65625 192.242188 151.222656 191.734375 C 143.390625 190.335938 138.289062 186.515625 134.949219 182.195312 C 125.386719 168.390625 130.347656 152.085938 130.820312 150.628906 C 131.492188 148.75 132.199219 147.246094 132.734375 146.222656 C 132.875 145.949219 133.023438 145.671875 133.1875 145.40625 C 133.453125 144.9375 133.617188 144.683594 133.617188 144.683594 C 140.382812 133.945312 151.90625 131.492188 159.773438 131.195312 C 159.832031 131.167969 159.886719 131.132812 159.945312 131.105469 C 159.945312 131.105469 159.957031 131.140625 159.972656 131.183594 C 164.792969 131.019531 168.195312 131.65625 168.195312 131.65625 C 184.789062 135.714844 189.921875 147.375 191.507812 154.195312 C 191.507812 154.210938 194.507812 169.765625 186.160156 181.628906 C 178.171875 194.390625 163.085938 193.859375 155.625 192.675781 Z M 155.625 192.675781 " fill-opacity="1" fill-rule="nonzero"/><path fill="#fdae23" d="M 259.363281 129.503906 C 258.886719 127.703125 258.304688 125.921875 257.882812 124.105469 C 257.007812 120.378906 256.21875 116.628906 255.363281 112.894531 C 255.125 111.828125 254.839844 110.769531 254.558594 109.707031 C 254.46875 109.390625 254.375 109.058594 254.292969 108.699219 C 254.109375 108 253.917969 107.308594 253.726562 106.609375 C 249.507812 92.421875 237.40625 83.519531 232.542969 80.488281 C 232.097656 80.226562 231.582031 80.070312 231.175781 79.773438 C 229.980469 78.921875 228.78125 78.050781 227.652344 77.113281 C 226.898438 76.484375 226.148438 75.839844 225.480469 75.128906 C 222.804688 72.585938 220.667969 69.671875 220.179688 66.597656 C 217.640625 58.980469 209.144531 62.199219 209.144531 62.199219 C 199.15625 63.652344 192.511719 55.300781 192.511719 55.300781 C 183.449219 46.253906 159.378906 44.320312 159.378906 44.320312 C 147.179688 41.609375 136.871094 51.902344 136.871094 51.902344 C 135.414062 52.996094 134.003906 54.164062 132.566406 55.273438 C 131.789062 55.871094 131.046875 56.699219 130.160156 56.953125 C 126.109375 58.097656 121.9375 57.566406 117.808594 57.582031 C 115.027344 57.585938 112.25 57.355469 109.53125 58.300781 C 108.164062 58.773438 106.878906 59.367188 105.691406 60.082031 C 105.691406 60.082031 105.679688 60.085938 105.652344 60.101562 C 105.628906 60.117188 105.609375 60.128906 105.585938 60.144531 C 105.425781 60.242188 105.09375 60.453125 104.605469 60.785156 C 104.523438 60.851562 104.429688 60.90625 104.34375 60.96875 C 101.210938 63.179688 93.371094 69.542969 88.925781 80.539062 C 88.925781 80.539062 77.140625 88.808594 74.332031 92.089844 C 73.273438 93.050781 72.371094 94.214844 71.523438 95.382812 C 69.332031 98.390625 66.832031 101.09375 65.617188 104.863281 C 64.355469 108.789062 63.59375 112.773438 62.804688 116.769531 C 62.332031 119.179688 62.265625 121.664062 61.75 124.058594 C 61.320312 126.050781 60.734375 128.074219 59.8125 129.875 C 58.320312 132.765625 56.472656 135.460938 54.816406 138.265625 C 52.261719 142.585938 50.355469 147.121094 50.226562 152.246094 C 50.136719 156.066406 50.984375 159.542969 53.566406 162.527344 C 54.398438 163.488281 55.046875 164.710938 55.4375 165.925781 C 55.84375 167.210938 55.921875 168.617188 56.015625 169.980469 C 56.304688 174.203125 56.390625 178.4375 56.847656 182.640625 C 57.117188 185.074219 57.882812 187.460938 58.539062 189.84375 C 59.789062 194.355469 61.390625 198.738281 63.9375 202.714844 C 63.9375 202.714844 76.183594 229.71875 94.777344 227.855469 C 94.777344 227.855469 100.167969 226.902344 106.539062 238.523438 C 111.929688 245.203125 121.054688 257.285156 135.5625 256.992188 C 137.230469 257.066406 138.914062 256.835938 140.589844 256.679688 C 142.175781 256.53125 143.75 256.304688 145.332031 256.113281 C 145.324219 256.058594 145.324219 256.007812 145.316406 255.953125 C 146.296875 255.851562 147.328125 255.746094 148.378906 255.632812 C 148.394531 255.632812 161.558594 252.570312 171.480469 253.832031 C 172.425781 254.089844 191.347656 258.988281 206.160156 247.761719 C 206.285156 247.691406 206.417969 247.621094 206.546875 247.550781 C 206.933594 247.332031 207.265625 246.976562 207.570312 246.636719 C 207.570312 246.636719 211.929688 243.914062 219.757812 229.726562 C 220.773438 228.230469 221.875 226.765625 223.042969 225.375 C 225.375 222.769531 228.867188 219.671875 233.269531 218.117188 C 234.34375 217.820312 235.4375 217.558594 236.507812 217.296875 C 236.507812 217.296875 244.84375 218.929688 253.050781 202.707031 C 261.257812 186.488281 262.808594 168.882812 262.90625 163.285156 C 263.007812 157.683594 266.546875 145.460938 259.363281 129.503906 Z M 199.136719 164.546875 C 197.570312 171.601562 190.734375 189.007812 181.347656 193.007812 C 171.953125 197.003906 152.414062 201 144.199219 197.710938 C 135.996094 194.417969 121.421875 180.667969 122.59375 169.429688 C 123.773438 158.191406 122.996094 138.90625 133.59375 133.972656 C 133.59375 133.972656 135.710938 133.285156 144.195312 129.035156 C 152.675781 124.785156 164.425781 122.632812 170.535156 126.417969 C 176.648438 130.199219 190.105469 136.4375 191.601562 140.136719 C 193.101562 143.851562 200.695312 157.492188 199.136719 164.546875 Z M 199.136719 164.546875 " fill-opacity="1" fill-rule="nonzero"/><g clip-path="url(#2a600e8423)"><path fill="#000000" d="M 59.195312 206.265625 C 59.308594 206.859375 59.472656 208.632812 58.640625 212.289062 C 58.378906 213.921875 57.992188 215.53125 57.269531 217.085938 C 56.113281 219.585938 54.5625 221.851562 52.230469 223.195312 C 51.132812 223.828125 49.890625 224.253906 48.613281 224.578125 C 42.996094 226.175781 34.253906 222.558594 29.226562 220.078125 C 27.9375 219.394531 26.644531 218.683594 25.320312 217.996094 C 25.28125 219.453125 24.386719 220.339844 23.066406 221.039062 C 20.941406 222.164062 18.355469 221.832031 16.894531 219.894531 C 13.808594 215.816406 12.847656 211.300781 14.671875 206.421875 C 14.988281 205.582031 15.898438 204.96875 16.519531 204.226562 C 16.738281 203.964844 16.898438 203.640625 17.082031 203.351562 L 17.070312 203.371094 C 17.324219 203.550781 17.578125 203.878906 17.839844 203.878906 C 21.675781 203.902344 23.300781 206.636719 24.007812 209.648438 C 24.761719 212.878906 26.835938 214.558594 29.402344 215.949219 C 31.957031 217.332031 34.507812 218.828125 37.230469 219.785156 C 41.019531 221.109375 45.007812 221.695312 48.992188 220.53125 C 51.730469 219.726562 53.347656 217.65625 54.1875 215.058594 C 54.40625 214.386719 54.589844 213.710938 54.765625 213.027344 C 54.949219 212.199219 56.121094 206.683594 56.3125 200.421875 C 56.382812 200.574219 56.445312 200.730469 56.523438 200.878906 C 57.417969 202.671875 58.300781 204.472656 59.195312 206.265625 Z M 313.777344 160.59375 C 313.695312 159.394531 313.296875 157.421875 311.621094 156.539062 C 310.40625 156.144531 309.066406 155.839844 307.808594 155.941406 C 306.863281 156.019531 305.726562 156.570312 305.097656 157.273438 C 303.117188 159.5 301.804688 162.148438 300.90625 165 C 300.808594 165.3125 300.660156 165.65625 300.421875 165.855469 C 300.421875 165.855469 298.253906 170.707031 288.574219 174.9375 C 287.992188 175.195312 287.40625 175.4375 286.816406 175.65625 C 286.722656 175.691406 286.632812 175.734375 286.53125 175.769531 C 275.984375 179.828125 267.601562 177.132812 266.371094 176.695312 C 266.257812 177.472656 266.140625 178.242188 266 179.011719 C 265.921875 179.636719 265.820312 180.378906 265.6875 181.226562 C 266.003906 181.292969 266.34375 181.347656 266.691406 181.382812 C 266.691406 181.382812 282.285156 184.058594 291.664062 178.671875 C 291.664062 178.671875 296.679688 176.15625 300.109375 172.210938 C 300.386719 173.628906 301.300781 176.199219 304.429688 175.996094 C 308.71875 175.707031 311.691406 171.234375 312.277344 168.984375 C 312.277344 168.984375 312.96875 167.082031 313.410156 164.695312 C 313.417969 164.675781 313.425781 164.652344 313.425781 164.632812 C 313.445312 164.535156 313.453125 164.433594 313.476562 164.335938 C 313.488281 164.273438 313.496094 164.210938 313.511719 164.144531 C 313.546875 163.925781 313.582031 163.707031 313.609375 163.488281 C 313.742188 162.535156 313.8125 161.539062 313.777344 160.59375 Z M 147.878906 266.875 C 146.707031 270.605469 145.4375 274.304688 144.136719 278 C 143.726562 279.171875 143.023438 280.242188 142.59375 281.414062 C 141.46875 284.464844 139.351562 286.703125 136.75 288.464844 C 132.601562 291.265625 128.289062 290.914062 123.898438 288.902344 C 120.757812 287.460938 118.105469 285.328125 115.394531 283.265625 C 114.011719 282.214844 112.757812 280.992188 111.445312 279.839844 C 110.386719 278.917969 109.339844 277.976562 108.023438 276.804688 C 101.402344 282.074219 95.617188 288.097656 90.148438 294.664062 C 90.605469 295.015625 90.929688 295.261719 91.253906 295.503906 C 92.746094 296.585938 94.453125 296.542969 96.167969 296.507812 C 101.09375 296.414062 104.996094 294.351562 107.691406 290.242188 C 109.015625 288.214844 110.054688 286 111.21875 283.875 C 111.269531 283.878906 111.324219 283.867188 111.351562 283.886719 C 111.515625 284.023438 111.671875 284.164062 111.820312 284.304688 C 116.003906 288.308594 120.273438 292.21875 125.753906 294.394531 C 128.527344 295.496094 131.421875 295.878906 134.421875 295.277344 C 136.910156 294.777344 138.824219 293.355469 140.722656 291.796875 C 143.558594 289.460938 145.808594 286.628906 147.417969 283.386719 C 150.042969 278.097656 151.582031 272.398438 152.980469 266.679688 C 153.289062 265.421875 153.535156 264.144531 153.839844 262.765625 C 152.078125 262.605469 150.53125 262.457031 148.773438 262.292969 C 148.457031 263.980469 148.316406 265.476562 147.878906 266.875 Z M 77.945312 93.15625 C 79.464844 91.382812 80.9375 89.554688 82.195312 87.597656 C 83.105469 86.171875 83.675781 84.519531 83.492188 82.71875 C 83.375 81.476562 82.808594 80.707031 82.003906 80.550781 C 81.261719 80.410156 80.628906 81.066406 80.664062 81.824219 C 80.734375 83.617188 79.984375 85.242188 79.027344 86.679688 C 77.679688 88.714844 75.992188 90.535156 74.332031 92.34375 C 74.242188 92.441406 74.164062 92.542969 74.085938 92.640625 C 73.375 93.601562 74.269531 94.972656 75.425781 94.683594 C 76.421875 94.433594 77.277344 93.941406 77.945312 93.15625 Z M 93.761719 86.230469 C 91.285156 89.730469 89.921875 93.460938 91.574219 97.667969 C 91.757812 98.136719 92.242188 98.425781 92.738281 98.320312 C 93.773438 98.097656 94 97.546875 93.992188 96.320312 C 93.984375 95.050781 94.015625 93.691406 94.4375 92.519531 C 95.179688 90.480469 96.25 88.574219 97.882812 87.035156 C 98.128906 86.800781 98.320312 86.519531 98.488281 86.207031 C 98.847656 85.574219 98.453125 84.773438 97.742188 84.65625 C 96.265625 84.40625 94.65625 84.964844 93.761719 86.230469 Z M 84.933594 79.675781 C 85.976562 80.480469 87.167969 81.101562 88.3125 81.773438 C 91.042969 83.371094 93.957031 83.617188 96.972656 82.789062 C 98.375 82.402344 99.066406 81.90625 99.242188 80.960938 C 99.371094 80.289062 98.8125 79.699219 98.128906 79.703125 C 97.78125 79.710938 97.4375 79.734375 97.105469 79.816406 C 94.472656 80.503906 91.90625 80.574219 89.519531 79.105469 C 88.15625 78.269531 86.875 77.316406 85.53125 76.371094 C 85.117188 76.074219 84.539062 76.195312 84.25 76.613281 C 83.4375 77.789062 83.648438 78.6875 84.933594 79.675781 Z M 91.121094 100.332031 C 90.613281 98.898438 89.730469 97.816406 88.496094 96.984375 C 85.257812 94.800781 81.847656 94.238281 78.214844 95.902344 C 77.101562 96.410156 76.550781 96.960938 76.527344 97.753906 C 76.507812 98.429688 77.136719 98.953125 77.804688 98.871094 C 78.277344 98.804688 78.757812 98.726562 79.21875 98.566406 C 81.769531 97.648438 84.175781 97.773438 86.414062 99.363281 C 87.472656 100.113281 88.480469 100.945312 89.570312 101.800781 C 89.984375 102.132812 90.59375 102.203125 91.015625 101.878906 C 91.402344 101.582031 91.398438 101.113281 91.121094 100.332031 Z M 114.484375 109.398438 C 114.664062 109.503906 114.839844 109.601562 115.027344 109.695312 C 115.058594 109.707031 115.078125 109.722656 115.113281 109.738281 L 115.121094 109.730469 C 115.558594 109.921875 116.023438 110.070312 116.539062 110.132812 C 119.785156 110.550781 122.796875 110.039062 125.359375 107.652344 C 127.6875 105.484375 128.570312 101.226562 126.988281 98.488281 C 125.234375 95.445312 122.707031 93.714844 119.191406 93.917969 C 118.492188 93.917969 117.902344 93.847656 117.328125 93.941406 C 116.765625 94.023438 116.199219 94.214844 115.671875 94.449219 C 112.515625 95.832031 110.1875 98.558594 110.1875 101.8125 L 110.175781 101.800781 C 110.175781 101.800781 109.890625 106.792969 114.484375 109.398438 Z M 17.078125 203.351562 C 17.078125 203.34375 17.070312 203.34375 17.070312 203.335938 C 17.070312 203.351562 17.0625 203.367188 17.0625 203.371094 Z M 241.644531 293.425781 C 241.449219 291.988281 241.128906 290.597656 240.707031 289.226562 C 240.6875 289.15625 240.65625 289.085938 240.636719 289.007812 C 240.601562 288.902344 240.574219 288.796875 240.539062 288.695312 C 236.8125 277.085938 227.644531 272.589844 227.644531 272.589844 C 225.289062 275.320312 223.09375 277.773438 221.019531 280.320312 C 218.5 283.414062 215.839844 286.375 212.460938 288.519531 C 207.5625 291.625 204.34375 291.273438 199.222656 288.011719 C 196.632812 286.367188 194.675781 283.914062 193.214844 281.203125 C 191.550781 278.109375 189.730469 275.039062 188.609375 271.742188 C 187.4375 268.28125 187.019531 264.566406 186.246094 260.839844 C 184.65625 261.148438 182.835938 261.503906 180.917969 261.875 C 181.550781 264.574219 182.054688 267.09375 182.738281 269.558594 C 183.9375 273.859375 185.773438 277.898438 187.847656 281.847656 C 190.238281 286.394531 193.449219 290.136719 198.128906 292.4375 C 201.636719 294.160156 205.21875 295.15625 209.199219 294.078125 C 212.140625 293.277344 214.894531 292.03125 217.054688 290.023438 C 219.507812 287.742188 221.492188 284.953125 223.636719 282.355469 C 224.328125 281.515625 224.894531 280.570312 225.628906 279.507812 C 225.628906 279.507812 226.347656 293.082031 236.875 296.195312 L 236.875 296.1875 C 238.316406 296.632812 239.847656 296.839844 241.414062 296.703125 C 241.496094 295.628906 241.792969 294.5 241.644531 293.425781 Z M 320.609375 149.035156 C 320.042969 146.542969 319.402344 144.121094 317.566406 142.175781 C 315.917969 140.425781 313.53125 140.121094 312.402344 141.738281 C 310.703125 144.183594 309.65625 146.851562 309.324219 149.746094 C 310.441406 149.613281 311.527344 149.605469 312.542969 150.066406 C 312.789062 149.226562 312.972656 148.363281 313.226562 147.542969 C 313.226562 147.542969 313.914062 144.535156 314.972656 144.726562 C 315.789062 144.875 316.558594 145.84375 317.082031 150.109375 C 317.277344 151.355469 317.433594 152.605469 317.460938 153.855469 C 317.46875 154.097656 317.460938 154.335938 317.46875 154.578125 C 317.46875 154.625 317.476562 154.675781 317.476562 154.726562 L 317.46875 154.710938 C 317.496094 157.601562 317.347656 160.496094 317.117188 163.375 C 317.054688 164.117188 316.96875 164.859375 316.875 165.601562 L 316.875 165.59375 C 316.875 165.59375 314.484375 188.492188 301.542969 218.632812 C 301.542969 218.632812 287.832031 249.703125 276.414062 267.414062 C 275.914062 268.265625 275.375 269.101562 274.796875 269.890625 C 274.636719 270.109375 274.480469 270.328125 274.316406 270.546875 C 273.683594 271.460938 273.054688 272.320312 272.449219 273.117188 C 272.441406 273.125 272.441406 273.132812 272.433594 273.132812 C 272.417969 273.152344 270.261719 276.789062 265.707031 281.972656 C 265.335938 282.433594 264.96875 282.90625 264.585938 283.359375 C 263.710938 284.394531 262.722656 285.335938 261.699219 286.246094 C 253.839844 294.140625 241.46875 303.878906 223.882812 310.359375 C 217.238281 312.324219 210.914062 314.9375 204.1875 315.988281 C 198.390625 316.894531 192.589844 317.65625 187.019531 318.410156 C 173.082031 319.660156 158.800781 318.890625 146.933594 317.59375 C 125.121094 316.164062 103.90625 308.921875 103.90625 308.921875 C 72.378906 300.96875 51.492188 281.597656 51.492188 281.597656 C 22.785156 256.988281 9.539062 228.1875 9.539062 228.1875 L 9.546875 228.195312 C 8.984375 227.15625 8.460938 226.125 8 225.085938 C 7.488281 223.816406 6.984375 222.542969 6.484375 221.265625 C 2.710938 210.277344 4.070312 200.6875 4.226562 199.714844 C 4.464844 198.699219 4.761719 197.695312 5.121094 196.726562 C 5.722656 195.589844 6.511719 194.878906 7.28125 194.433594 C 7.28125 194.433594 10.957031 192.625 14.378906 198.203125 C 14.796875 198.917969 15.207031 199.628906 15.621094 200.335938 C 15.757812 200.5625 15.875 200.792969 15.996094 201.027344 C 16.722656 200.738281 17.507812 200.554688 18.375 200.527344 C 18.210938 199.734375 18.007812 198.972656 17.746094 198.238281 L 17.753906 198.238281 L 17.738281 198.222656 C 16.921875 195.972656 15.609375 193.988281 13.683594 192.285156 C 10.921875 189.847656 6.753906 189.992188 4.605469 191.722656 C 2.179688 193.675781 1.339844 196.523438 0.882812 199.425781 C 0.882812 199.425781 0.816406 199.839844 0.746094 200.597656 C 0.726562 200.816406 0.703125 201.027344 0.691406 201.246094 C 0.605469 202.410156 0.535156 204.09375 0.59375 206.160156 C 0.570312 207.800781 0.527344 209.464844 0.832031 211.054688 C 0.929688 211.585938 1.050781 212.105469 1.164062 212.636719 C 1.671875 216.074219 2.574219 219.972656 4.121094 224.054688 C 4.132812 224.097656 4.148438 224.132812 4.164062 224.175781 C 4.234375 224.367188 4.3125 224.550781 4.382812 224.742188 C 4.636719 225.390625 4.902344 226.039062 5.1875 226.675781 C 5.242188 226.800781 5.292969 226.921875 5.347656 227.050781 C 5.347656 227.050781 16.75 253.410156 35.253906 270.800781 C 35.421875 270.992188 54.964844 292.800781 78.230469 303.851562 C 79.328125 304.421875 80.464844 304.921875 81.617188 305.375 C 81.625 305.382812 81.636719 305.382812 81.644531 305.390625 C 82.464844 305.714844 83.296875 306.019531 84.121094 306.316406 L 84.113281 306.316406 C 84.113281 306.316406 108.832031 317.746094 138.421875 321.609375 L 138.421875 321.601562 C 141.355469 322.105469 144.320312 322.4375 147.328125 322.578125 C 152.253906 322.804688 157.15625 323.339844 162.082031 323.59375 C 165.242188 323.765625 168.414062 323.714844 171.582031 323.691406 C 174.101562 323.679688 176.625 323.65625 179.132812 323.46875 C 179.132812 323.46875 200.300781 323.285156 219.839844 316.40625 L 219.8125 316.417969 C 219.8125 316.417969 246.929688 307.824219 260.859375 292.949219 C 264.953125 289.402344 273.113281 280.914062 285.472656 261.785156 C 285.472656 261.785156 296.144531 241.144531 305.515625 219.238281 C 309.707031 209.796875 312.796875 200.757812 314.984375 193.359375 C 315.261719 192.675781 315.523438 191.980469 315.71875 191.277344 C 316.847656 187.144531 317.90625 182.984375 318.796875 178.796875 C 319.015625 177.753906 319.207031 176.707031 319.382812 175.65625 C 319.425781 175.429688 319.445312 175.304688 319.445312 175.304688 L 319.429688 175.339844 C 319.777344 173.253906 320.058594 171.164062 320.339844 169.074219 C 320.757812 165.9375 321.144531 162.789062 321.335938 159.625 C 321.535156 156.089844 321.40625 152.535156 320.609375 149.035156 Z M 202.488281 97.886719 C 202.347656 97.476562 202.121094 97.097656 201.855469 96.738281 C 200.957031 95.402344 199.878906 94.617188 199.878906 94.617188 L 199.878906 94.632812 C 198.792969 93.757812 197.5625 93.191406 196.214844 92.867188 L 196.230469 92.859375 C 193.34375 91.96875 190.851562 92.773438 189.109375 93.75 C 188.136719 94.207031 187.269531 94.871094 186.589844 95.648438 C 186.554688 95.683594 186.535156 95.710938 186.535156 95.710938 L 186.546875 95.707031 C 186.152344 96.171875 185.8125 96.679688 185.582031 97.21875 C 184.417969 99.871094 184.523438 102.765625 186.335938 105.316406 C 188.460938 108.304688 191.425781 109.347656 194.988281 109.109375 C 195.855469 109.050781 196.679688 108.890625 197.441406 108.613281 L 197.441406 108.621094 C 197.550781 108.578125 197.640625 108.535156 197.738281 108.492188 C 197.875 108.4375 198.007812 108.386719 198.136719 108.324219 C 201.296875 106.839844 202.804688 104.152344 203.03125 100.753906 C 203.101562 99.675781 202.863281 98.722656 202.488281 97.886719 Z M 167.296875 112.972656 C 167.296875 112.972656 171.339844 108.898438 168.835938 106.855469 C 167.324219 106.699219 167.210938 106.941406 166.410156 108.078125 C 165.34375 109.589844 164.261719 111.289062 162.761719 112.242188 C 159.519531 114.304688 155.957031 115.074219 152.289062 113.054688 C 151.179688 112.449219 150.070312 111.839844 148.949219 111.242188 C 148.941406 111.242188 147.921875 110.386719 146.996094 110.183594 C 146.960938 110.167969 146.933594 110.144531 146.898438 110.132812 C 146.875 110.140625 146.863281 110.144531 146.839844 110.152344 C 146.445312 110.097656 146.085938 110.183594 145.84375 110.527344 C 145.824219 110.535156 145.804688 110.542969 145.78125 110.550781 C 145.753906 110.621094 145.738281 110.703125 145.71875 110.78125 C 145.683594 110.867188 145.660156 110.964844 145.632812 111.066406 C 145.632812 111.070312 145.625 111.078125 145.625 111.085938 C 145.613281 111.140625 145.597656 111.183594 145.589844 111.242188 C 145.589844 111.242188 144.992188 112.695312 146.679688 114.066406 C 146.898438 114.269531 147.128906 114.460938 147.40625 114.582031 C 147.664062 114.699219 147.925781 114.828125 148.195312 114.949219 C 148.195312 114.949219 148.203125 114.949219 148.203125 114.957031 C 148.203125 114.957031 151.386719 117.136719 156.0625 117.484375 C 156.0625 117.484375 158.539062 117.878906 161.519531 116.917969 C 163.269531 116.375 164.878906 115.429688 166.324219 114.015625 C 166.445312 113.894531 166.554688 113.769531 166.675781 113.640625 C 166.859375 113.453125 167.035156 113.261719 167.210938 113.046875 C 167.253906 113.019531 167.277344 112.992188 167.296875 112.972656 Z M 198.261719 69.007812 C 197.070312 68.265625 193.535156 70.480469 193.449219 70.53125 C 192.757812 70.882812 192.066406 71.238281 191.359375 71.5625 C 186.84375 73.617188 182.492188 75.96875 178.417969 78.816406 C 177.890625 79.1875 177.457031 79.726562 177.042969 80.234375 C 176.507812 80.890625 176.546875 81.710938 177.019531 82.289062 C 177.351562 82.691406 178.050781 82.917969 178.609375 82.972656 C 179.160156 83.03125 179.78125 82.867188 180.296875 82.628906 C 183.328125 81.203125 186.355469 79.761719 189.34375 78.234375 C 190.832031 77.472656 192.257812 76.554688 193.652344 75.621094 C 195.007812 74.726562 196.292969 73.722656 197.886719 72.566406 C 197.886719 72.566406 198.753906 71.949219 199.015625 70.699219 C 199.269531 69.445312 198.261719 69.007812 198.261719 69.007812 Z M 132.691406 81.3125 C 130.765625 79.371094 128.832031 77.445312 126.828125 75.582031 C 125.054688 73.933594 123.257812 72.3125 121.351562 70.820312 C 119.558594 69.421875 118.0625 67.453125 115.488281 67.390625 C 113.660156 68.457031 113.328125 69.605469 114.484375 70.960938 C 115.085938 71.652344 115.71875 72.332031 116.414062 72.925781 C 119.652344 75.707031 122.898438 78.484375 126.171875 81.214844 C 127.6875 82.488281 129.199219 83.800781 131.316406 84.359375 L 131.316406 84.363281 C 131.316406 84.363281 133.582031 85.4375 133.707031 83.015625 C 133.277344 82.273438 133.078125 81.703125 132.691406 81.3125 Z M 132.691406 81.3125 " fill-opacity="1" fill-rule="nonzero"/></g><path fill="#fe28c0" d="M 263.082031 61.78125 C 260.234375 65.101562 257.679688 68.066406 255.003906 71.1875 C 253.570312 69.929688 252.203125 68.730469 250.683594 67.394531 C 253.488281 64.050781 256.246094 60.765625 258.742188 57.777344 C 259.203125 52.164062 259.625 46.917969 260.070312 41.402344 C 262.214844 42.144531 263.550781 43.710938 264.980469 45.066406 C 264.722656 48.851562 264.460938 52.558594 264.191406 56.410156 C 267.691406 56.210938 271.101562 56.011719 274.578125 55.816406 C 275.957031 57.6875 277.246094 59.429688 278.679688 61.371094 C 273.152344 61.515625 268.003906 61.65625 263.082031 61.78125 Z M 81.285156 185.039062 C 81.949219 184.199219 81.820312 183.507812 80.929688 182.84375 C 80.027344 182.171875 79.203125 181.398438 78.328125 180.683594 C 76.675781 179.355469 75.003906 178.042969 73.246094 176.652344 C 72.800781 177.289062 72.542969 177.65625 72.238281 178.085938 C 73.890625 180.449219 80.105469 185.222656 81.285156 185.039062 Z M 86.0625 144.65625 C 85.84375 145.242188 85.574219 145.957031 85.285156 146.726562 C 88.339844 148.074219 91.289062 149.378906 94.289062 150.699219 C 94.542969 150.007812 94.785156 149.367188 95.09375 148.539062 C 92.089844 147.246094 89.136719 145.976562 86.0625 144.65625 Z M 215.28125 161.355469 C 214.589844 160.996094 213.933594 160.648438 213.214844 160.277344 C 211.675781 163.285156 210.152344 166.277344 208.558594 169.390625 C 209.15625 169.6875 209.621094 169.914062 210.222656 170.203125 C 211.945312 167.195312 213.617188 164.28125 215.28125 161.355469 Z M 235.992188 203.632812 C 235.769531 200.625 235.554688 197.808594 235.351562 194.984375 C 234.496094 195.125 233.722656 195.25 232.796875 195.398438 C 233.050781 198.195312 233.3125 201.019531 233.59375 204.050781 C 234.53125 203.886719 235.238281 203.761719 235.992188 203.632812 Z M 162.703125 241.886719 C 159.359375 241.886719 156.097656 241.886719 152.703125 241.886719 C 152.839844 242.648438 152.945312 243.25 153.078125 244.003906 C 156.464844 244.003906 159.746094 244.003906 163.199219 244.003906 C 163.035156 243.269531 162.886719 242.640625 162.703125 241.886719 Z M 248.859375 175.089844 C 249.5625 175.167969 250.128906 175.230469 250.875 175.308594 C 251.59375 172.597656 252.292969 169.992188 253.027344 167.230469 C 252.203125 167.089844 251.574219 166.976562 250.839844 166.851562 C 250.128906 169.648438 248.886719 172.210938 248.859375 175.089844 Z M 118.367188 15.445312 C 118.359375 15.4375 118.351562 15.429688 118.347656 15.429688 C 118.347656 15.421875 118.367188 15.445312 118.367188 15.445312 Z M 306.285156 180.125 C 306.6875 178.507812 306.96875 176.855469 307.386719 175.246094 C 308.042969 172.710938 308.777344 170.199219 309.480469 167.675781 C 310.347656 164.546875 311.046875 161.363281 312.140625 158.3125 C 313.007812 155.882812 313.644531 153.476562 313.777344 150.90625 C 312.113281 149.316406 310.179688 149.597656 308.21875 149.902344 C 305.445312 159.84375 302.6875 169.730469 299.953125 179.511719 C 301.519531 181.671875 303.5625 181.460938 305.636719 181.515625 C 305.847656 181.078125 306.15625 180.628906 306.285156 180.125 Z M 22.402344 227.714844 C 24.019531 226.710938 25.539062 225.769531 27.152344 224.769531 C 26.050781 222.613281 24.921875 220.773438 24.160156 218.792969 C 23.152344 216.175781 22.339844 213.464844 21.621094 210.746094 C 21.121094 208.867188 20.914062 206.902344 20.597656 204.976562 C 20.363281 203.550781 20.152344 202.121094 19.925781 200.648438 C 17.804688 200.300781 16.128906 200.792969 14.648438 201.71875 C 15.847656 210.878906 17.308594 219.691406 22.402344 227.714844 Z M 34.292969 154.1875 C 24.296875 154.316406 14.488281 152.742188 4.53125 150.652344 C 4.53125 150.652344 4.316406 135.101562 12.992188 129.726562 C 13.039062 129.691406 13.097656 129.664062 13.152344 129.628906 C 13.359375 129.507812 13.5625 129.390625 13.773438 129.277344 C 13.921875 129.199219 14.078125 129.128906 14.226562 129.058594 C 14.308594 129.015625 14.386719 128.972656 14.472656 128.9375 L 14.464844 128.953125 C 16.152344 128.210938 17.992188 127.886719 19.886719 127.808594 C 24.167969 127.636719 27.789062 129.21875 30.984375 132 C 31.992188 132.878906 32.804688 133.84375 33.449219 134.898438 C 33.449219 134.898438 33.632812 135.164062 33.886719 135.714844 C 34.535156 137 34.929688 138.40625 35.105469 139.902344 C 35.640625 143.023438 35.769531 147.707031 34.292969 154.1875 Z M 30.414062 143.964844 C 29.917969 139.8125 28.945312 135.949219 24.238281 134.242188 C 23.84375 134.097656 23.460938 133.992188 23.074219 133.910156 L 23.066406 133.902344 C 23.066406 133.902344 12.199219 130.871094 10.351562 146.363281 L 30.433594 148.363281 C 30.441406 146.753906 30.574219 145.339844 30.414062 143.964844 Z M 40.292969 116.242188 C 39.875 117.957031 39.320312 120.753906 36.023438 123.421875 C 33.03125 125.84375 29.050781 125.800781 27.535156 125.683594 C 27.535156 125.683594 27.535156 125.683594 27.527344 125.683594 C 27.140625 125.652344 26.898438 125.609375 26.898438 125.609375 L 26.921875 125.597656 C 25.015625 125.351562 23.308594 124.792969 21.488281 124 C 17.230469 122.136719 14.996094 118.726562 13.632812 114.785156 C 12.382812 111.15625 12.214844 107.167969 14.902344 103.945312 C 16.496094 101.820312 18.8125 100.710938 20.824219 100.132812 C 22.128906 99.679688 23.398438 99.484375 24.640625 99.492188 C 24.84375 99.484375 24.964844 99.484375 24.964844 99.484375 L 24.957031 99.492188 C 25.523438 99.511719 26.082031 99.574219 26.636719 99.675781 L 26.632812 99.667969 C 26.632812 99.667969 26.652344 99.675781 26.679688 99.679688 C 27.878906 99.90625 29.050781 100.308594 30.207031 100.847656 C 32.636719 101.871094 35.742188 103.664062 37.71875 106.617188 L 37.710938 106.617188 C 38.492188 107.632812 39.148438 108.753906 39.628906 110.011719 C 40.441406 112.125 40.75 114.207031 40.292969 116.242188 Z M 35.050781 114.671875 C 35.191406 110.097656 31.089844 107.074219 31.089844 107.074219 L 31.089844 107.082031 C 29.558594 105.789062 27.667969 105.160156 25.601562 104.921875 C 24.484375 104.792969 23.222656 104.90625 22.191406 105.316406 C 19.539062 106.390625 18.199219 109.382812 18.21875 112.238281 C 18.246094 115.230469 20.683594 118.132812 23.539062 119.636719 L 23.53125 119.636719 C 23.53125 119.636719 24.804688 120.433594 26.632812 120.71875 L 26.632812 120.726562 C 26.652344 120.726562 26.679688 120.726562 26.703125 120.726562 C 27.71875 120.871094 28.902344 120.859375 30.144531 120.464844 C 35.3125 119.261719 35.050781 114.671875 35.050781 114.671875 Z M 35.097656 68.023438 C 33.949219 69.691406 32.941406 71.144531 31.734375 72.898438 L 48.035156 84.65625 L 24.183594 86.257812 C 23.109375 88.128906 21.59375 91.566406 21.59375 91.566406 C 29.445312 95.832031 37.238281 100.054688 45.246094 104.40625 C 46.183594 102.476562 46.96875 100.867188 47.757812 99.242188 C 43.214844 96.59375 38.886719 94.082031 34.476562 91.511719 L 52.726562 89.859375 C 52.726562 89.859375 54.730469 88.066406 56.210938 83.792969 C 49.175781 78.53125 42.199219 73.320312 35.097656 68.023438 Z M 68.3125 61.332031 C 64.671875 52.8125 53.390625 43.710938 53.390625 43.710938 C 52.050781 45.246094 50.933594 46.515625 49.789062 47.816406 C 49.789062 47.816406 58.003906 54.105469 62.125 60.746094 C 63.171875 62.425781 63.621094 64.4375 63.277344 66.394531 C 62.957031 68.203125 62 70.066406 59.421875 70.285156 C 52.9375 70.855469 45.21875 63.703125 42.246094 60.660156 C 42.097656 60.519531 41.957031 60.363281 41.800781 60.199219 C 41.546875 59.933594 41.351562 59.71875 41.210938 59.566406 C 40.625 60.300781 39.035156 62.324219 37.800781 64.253906 C 37.894531 64.59375 38.140625 64.917969 38.550781 65.269531 C 42.507812 68.632812 46.53125 71.894531 51.285156 74.113281 C 53.332031 75.066406 55.402344 75.722656 57.554688 75.722656 C 57.554688 75.722656 62.324219 76.457031 66.132812 71.949219 C 68.605469 69.019531 69.816406 64.917969 68.3125 61.332031 Z M 70.175781 35.257812 C 72.378906 32.683594 73.410156 31.390625 76.308594 28.09375 C 74.914062 26.855469 73.785156 24.984375 72.824219 24.164062 C 68.878906 27.421875 57.222656 39.222656 55.589844 41.621094 C 56.839844 42.984375 58.125 44.390625 59.5625 45.957031 C 61.785156 43.605469 63.761719 41.523438 65.773438 39.390625 C 65.773438 39.390625 77.65625 52.191406 81.023438 55.160156 C 81.277344 55.347656 81.515625 55.554688 81.777344 55.746094 C 82.929688 54.394531 84.058594 53.070312 85.171875 51.753906 C 80.085938 46.148438 75.152344 40.726562 70.175781 35.257812 Z M 170.875 25.117188 C 167.210938 29.800781 162.867188 32.1875 156.21875 29.828125 C 152.832031 28.628906 150.8125 25.867188 149.761719 22.527344 C 149 20.105469 148.386719 17.585938 148.757812 14.984375 C 149.125 12.449219 149.664062 9.984375 151.039062 7.953125 C 151.039062 7.953125 152.921875 4.980469 156.648438 3.101562 C 156.867188 3.007812 162.765625 0.582031 168.335938 4.839844 C 169.835938 6.046875 171.109375 7.507812 172.097656 9.246094 C 172.710938 10.324219 173 11.625 173.28125 12.859375 C 174.304688 17.300781 173.65625 21.566406 170.875 25.117188 Z M 168.523438 16.574219 C 168.476562 14.046875 167.105469 7.832031 162.035156 7.789062 C 156.960938 7.746094 155.851562 10.207031 155.851562 10.207031 C 154.828125 11.328125 154.304688 12.761719 154.058594 14.171875 C 153.925781 14.789062 153.855469 15.417969 153.875 16.058594 C 153.820312 18.171875 154.214844 19.871094 154.214844 19.871094 C 156.289062 26.917969 161.992188 25.824219 161.992188 25.824219 C 167.558594 24.710938 168.574219 19.09375 168.523438 16.574219 Z M 195.050781 15.605469 C 193.003906 18.214844 190.1875 18.664062 187.359375 19.25 C 185.863281 19.5625 184.28125 19.46875 182.765625 19.5625 C 182.765625 19.5625 182.820312 28.882812 182.460938 31.574219 C 180.996094 31.628906 177.316406 31.523438 177.316406 31.523438 C 177.164062 29.609375 177.246094 24.195312 177.394531 18.636719 C 177.351562 17.929688 177.3125 17.222656 177.316406 16.519531 C 177.351562 12.9375 177.453125 9.359375 177.550781 5.769531 L 177.550781 5.757812 C 177.558594 5.621094 177.558594 5.488281 177.566406 5.355469 C 177.566406 5.246094 177.578125 5.140625 177.601562 5.035156 L 177.699219 3.355469 C 180.945312 3.09375 185.773438 3.523438 185.773438 3.523438 C 185.777344 3.523438 185.777344 3.523438 185.785156 3.523438 C 186.535156 3.574219 188.269531 3.792969 190.34375 4.472656 C 192.292969 5.183594 193.582031 6.152344 194.402344 6.984375 C 194.875 7.402344 195.277344 7.9375 195.601562 8.546875 C 195.652344 8.628906 195.679688 8.695312 195.679688 8.695312 L 195.671875 8.695312 C 196.660156 10.714844 196.710938 13.488281 195.050781 15.605469 Z M 191.453125 10.75 C 191.453125 10.75 190.457031 8.3125 186.582031 7.953125 C 186.582031 7.953125 184.304688 7.65625 182.703125 7.867188 L 182.703125 15.234375 C 182.703125 15.234375 189.117188 15.699219 191.007812 13.488281 C 191.890625 12.464844 191.910156 11.53125 191.453125 10.75 Z M 146.867188 8.566406 C 146.636719 6.589844 146.789062 4.359375 146.613281 2.847656 C 139.425781 2.847656 131.660156 3.476562 124.554688 3.476562 C 124.421875 5.585938 124.660156 7.472656 124.542969 9.394531 C 127.527344 9.394531 130.230469 9.160156 132.753906 9.160156 C 133.1875 16.519531 133.625 23.925781 134.066406 31.523438 C 135.980469 31.390625 137.773438 31.269531 139.394531 31.15625 L 138.402344 9.003906 Z M 118.367188 15.445312 C 118.359375 15.4375 118.359375 15.429688 118.351562 15.421875 C 118.351562 15.421875 118.347656 15.421875 118.347656 15.429688 Z M 123.34375 27.054688 C 123.222656 24.023438 121.28125 21.898438 118.902344 20.527344 C 117.867188 19.929688 116.765625 19.449219 115.636719 19.003906 C 111.855469 17.929688 110.519531 17.28125 110.144531 17.070312 C 110.140625 17.0625 110.125 17.0625 110.117188 17.054688 C 110.046875 17.011719 110.019531 16.992188 110.019531 16.992188 C 109.8125 16.855469 109.609375 16.6875 109.433594 16.484375 C 109.410156 16.460938 109.398438 16.441406 109.382812 16.425781 C 109.335938 16.363281 109.292969 16.300781 109.242188 16.234375 C 109.234375 16.222656 109.222656 16.207031 109.214844 16.191406 C 108.679688 15.332031 108.609375 14.039062 110.132812 12.667969 C 112.582031 10.460938 115.558594 12.394531 115.558594 12.394531 C 116.679688 13.050781 117.632812 14.160156 118.359375 15.429688 C 119.734375 14.46875 121.113281 13.511719 122.460938 12.570312 C 121.570312 10 119.847656 8.441406 117.710938 7.359375 C 114.386719 5.679688 111.015625 5.910156 107.621094 7.308594 C 103.589844 8.96875 101.390625 13.660156 102.882812 17.726562 C 103.613281 19.703125 105.183594 21.050781 106.921875 22.019531 C 108.792969 23.0625 110.832031 23.828125 112.855469 24.5625 C 113.527344 24.808594 114.167969 25.078125 114.746094 25.414062 C 114.746094 25.414062 117.214844 26.574219 117.605469 28.015625 C 117.992188 29.453125 117.214844 31.871094 113.421875 31.769531 L 113.421875 31.765625 C 112.722656 31.792969 111.972656 31.671875 111.234375 31.398438 C 110.984375 31.304688 110.746094 31.207031 110.5 31.105469 L 110.5 31.113281 C 105.722656 29.644531 103.011719 25.8125 103.011719 25.8125 C 101.902344 27.136719 100.859375 28.386719 99.84375 29.601562 C 101.699219 32.503906 105.402344 35.527344 108.375 36.375 C 109.679688 36.75 110.972656 36.953125 112.25 36.96875 C 112.25 36.96875 121.308594 37.667969 123.003906 30.078125 L 122.996094 30.078125 C 123.265625 29.152344 123.382812 28.148438 123.34375 27.054688 Z M 257.539062 43.351562 C 257.480469 43.519531 257.417969 43.691406 257.347656 43.859375 L 257.347656 43.851562 C 257.191406 44.375 256.972656 44.882812 256.675781 45.371094 C 255.238281 47.757812 253.105469 48.902344 250.226562 48.585938 C 249 53.492188 247.820312 58.222656 246.550781 63.308594 C 245.132812 62.128906 243.785156 61.011719 242.332031 59.8125 C 243.425781 55.582031 244.511719 51.410156 245.613281 47.152344 C 243.453125 45.835938 241.335938 44.539062 239.019531 43.132812 L 232.929688 53.195312 C 232.929688 53.195312 229.445312 50.457031 228.808594 50.214844 L 235.4375 39.523438 C 238.175781 35.046875 240.917969 30.5625 243.691406 26.023438 C 245.210938 26.890625 246.5 27.625 247.820312 28.382812 C 247.609375 28.996094 247.4375 29.488281 247.339844 29.792969 C 247.339844 29.792969 251.425781 31.390625 255.308594 34.96875 C 257.601562 37.09375 258.546875 40.394531 257.539062 43.351562 Z M 252.464844 39.628906 C 250.828125 36.480469 247.644531 35.5625 244.921875 33.898438 C 244.320312 34.820312 243.820312 35.597656 243.316406 36.359375 C 242.816406 37.117188 242.308594 37.863281 241.886719 38.488281 C 243.269531 39.453125 244.554688 40.464844 245.945312 41.296875 C 247.183594 42.039062 248.496094 42.703125 249.859375 43.183594 C 250.863281 43.535156 251.90625 43.132812 252.484375 42.230469 C 252.992188 41.4375 252.957031 40.582031 252.464844 39.628906 Z M 220.425781 13.785156 C 219.707031 15.429688 218.996094 17.082031 218.265625 18.75 C 220.84375 19.894531 223.152344 20.925781 225.542969 21.992188 C 222.410156 29.160156 219.347656 36.171875 216.199219 43.367188 C 216.199219 43.367188 220.484375 45.414062 220.964844 45.703125 L 221.222656 45.195312 C 221.238281 45.203125 221.253906 45.203125 221.257812 45.210938 C 224.640625 38.375 227.96875 31.628906 231.398438 24.703125 C 233.941406 25.910156 236.453125 27.109375 239.015625 28.332031 C 239.875 26.671875 240.644531 25.195312 241.421875 23.714844 C 234.460938 20.421875 227.511719 17.140625 220.425781 13.785156 Z M 295.925781 94.109375 C 293.109375 95.269531 290.546875 96.277344 288.027344 97.363281 C 285.503906 98.453125 283.003906 99.617188 280.167969 100.902344 C 281.199219 98.839844 282.066406 97.132812 282.921875 95.417969 C 284 93.242188 285.035156 91.050781 286.152344 88.898438 C 287.4375 86.414062 288.804688 83.976562 290.089844 81.492188 C 290.300781 81.074219 290.5 80.417969 290.324219 80.070312 C 289.617188 78.714844 288.753906 77.445312 287.84375 75.976562 C 287.84375 75.976562 285.136719 77.410156 281.59375 79.28125 C 280.105469 80.007812 278.621094 80.734375 277.15625 81.496094 C 274.304688 82.988281 271.480469 84.535156 268.6875 86.117188 C 266.910156 87.0625 265.636719 87.746094 265.277344 87.953125 L 265.609375 88.503906 C 265.609375 88.503906 265.609375 88.503906 265.609375 88.511719 C 266.292969 89.632812 266.894531 90.621094 267.605469 91.792969 L 282.226562 85.023438 C 282.121094 85.171875 282.015625 85.316406 281.917969 85.464844 C 281.71875 85.910156 281.566406 86.382812 281.3125 86.792969 C 279.800781 89.25 278.183594 91.644531 276.765625 94.160156 C 275.152344 97.027344 273.703125 99.992188 272.207031 102.921875 C 272.011719 103.316406 271.734375 103.890625 271.882812 104.207031 C 272.46875 105.5 273.203125 106.722656 273.851562 107.921875 C 282.082031 104.878906 289.992188 101.957031 298.0625 98.976562 C 297.257812 97.132812 296.582031 95.601562 295.925781 94.109375 Z M 304.097656 123.734375 C 304.484375 122.15625 304.542969 120.519531 304.1875 118.804688 C 302.847656 112.34375 298.0625 107.90625 291.210938 107.753906 C 287.675781 107.675781 284.464844 108.535156 281.507812 110.273438 C 277.585938 112.582031 275.066406 115.914062 275.46875 120.6875 C 275.75 124.09375 277.449219 126.847656 280.351562 128.769531 C 280.734375 129.015625 281.113281 129.253906 281.601562 129.566406 C 280.167969 129.996094 278.976562 130.347656 277.5 130.792969 C 277.847656 132.03125 278.183594 133.230469 278.542969 134.5 C 281.683594 133.789062 284.523438 133.308594 287.261719 132.488281 C 289.109375 131.929688 291.042969 131.59375 292.871094 130.964844 C 293.984375 130.632812 294.917969 130.328125 295.523438 130.074219 L 294.554688 127.164062 C 294.480469 126.910156 294.40625 126.65625 294.335938 126.394531 C 293.476562 123.222656 292.679688 120.03125 291.753906 116.882812 C 291.683594 116.644531 291.550781 116.425781 291.382812 116.21875 L 287.578125 117.371094 C 288.316406 120.398438 289.050781 123.386719 289.808594 126.488281 C 289.300781 126.550781 288.820312 126.671875 288.347656 126.664062 C 286.285156 126.65625 284.472656 125.921875 282.707031 124.875 C 280.964844 123.847656 280 121.875 279.933594 119.933594 C 279.878906 117.292969 282.355469 115.28125 282.664062 115.039062 C 285.863281 112.835938 289.328125 111.550781 293.496094 112.570312 C 296.589844 113.316406 298.351562 115.378906 299.496094 117.941406 C 300.71875 120.675781 300.660156 123.492188 297.910156 125.652344 C 298.472656 126.890625 299.003906 128.070312 299.503906 129.175781 C 299.496094 129.175781 302.875 128.238281 304.097656 123.734375 Z M 282.96875 66.746094 C 280.804688 64.070312 280.0625 63.328125 280.0625 63.328125 C 273.265625 68.492188 266.589844 73.5625 259.835938 78.6875 C 261.171875 80.285156 262.285156 81.609375 263.449219 83.003906 C 263.824219 82.734375 264 82.621094 264.164062 82.492188 C 264.164062 82.492188 273.324219 75.996094 279.300781 71.589844 C 279.808594 71.265625 280.316406 70.933594 280.816406 70.601562 C 281.867188 69.894531 282.792969 68.992188 283.980469 68.011719 C 283.570312 67.636719 283.25 67.199219 282.96875 66.746094 Z M 225.011719 114.234375 C 224.703125 114.085938 224.386719 113.9375 224.066406 113.804688 C 224.0625 113.804688 224.046875 113.796875 224.046875 113.796875 C 214.4375 110.675781 205.785156 114.714844 205.210938 114.992188 C 205.207031 114.996094 205.191406 115.003906 205.175781 115.003906 C 205.175781 115.003906 204.535156 115.273438 203.816406 115.859375 C 203.492188 116.097656 203.222656 116.367188 203.003906 116.65625 C 202.347656 117.425781 201.789062 118.484375 201.789062 119.878906 C 201.894531 120.195312 201.972656 120.605469 202.148438 120.964844 C 202.445312 121.566406 202.804688 122.066406 203.230469 122.496094 C 203.230469 122.496094 203.335938 122.609375 203.554688 122.785156 C 203.921875 123.097656 204.324219 123.367188 204.773438 123.585938 C 206.328125 124.4375 209.199219 125.539062 214.046875 125.84375 C 222.3125 126.359375 226.6875 124.253906 228.324219 122.496094 C 229.367188 121.375 229.566406 119.984375 229.515625 118.960938 C 229.167969 116.609375 226.488281 114.96875 225.011719 114.234375 Z M 94.175781 129.59375 C 95.476562 129.679688 96.773438 129.734375 98.070312 129.796875 C 98.148438 129.804688 98.21875 129.804688 98.296875 129.804688 C 102.101562 129.777344 107.597656 129.136719 110.476562 125.957031 C 110.5 125.9375 110.511719 125.90625 110.535156 125.878906 C 110.816406 125.425781 112.425781 122.40625 106.765625 119.183594 C 105.933594 118.734375 105.277344 118.445312 105.121094 118.378906 C 105.09375 118.375 105.066406 118.359375 105.03125 118.34375 C 96.273438 115.730469 88.207031 117.667969 87.640625 117.808594 C 86.839844 118.046875 86.046875 118.332031 85.277344 118.65625 C 83.5625 119.375 82.074219 121.234375 81.882812 122.886719 C 81.882812 122.933594 82.695312 128.324219 94.175781 129.59375 Z M 129.015625 205.617188 L 138.535156 214.457031 L 139.824219 212.878906 C 138.957031 211.675781 130.921875 204.402344 130.921875 204.402344 Z M 81.636719 205.421875 L 91.289062 206.027344 L 91.523438 203.9375 L 81.339844 203.796875 M 196.992188 196.671875 C 196.554688 196.761719 196.066406 196.863281 194.953125 197.09375 C 196.164062 199.984375 197.273438 202.6875 198.460938 205.347656 L 200.214844 204.425781 C 199.164062 201.882812 198.105469 199.339844 196.992188 196.671875 Z M 206.949219 211.71875 L 215.628906 215.714844 L 216.90625 213.972656 L 207.667969 210.023438 Z M 156.515625 229.472656 L 158.292969 229.152344 L 156.71875 220.152344 L 154.847656 220.234375 Z M 156.515625 229.472656 " fill-opacity="1" fill-rule="nonzero"/><path fill="#ffffff" d="M 215.316406 181.480469 C 216.257812 181.75 216.855469 181.917969 217.5 182.101562 C 216.734375 186.402344 215.96875 190.703125 215.203125 194.976562 C 214.429688 194.757812 213.707031 194.558594 213.066406 194.375 C 213.816406 190.105469 214.5625 185.824219 215.316406 181.480469 Z M 185.765625 216.019531 C 185.398438 215.007812 185.074219 214.105469 184.777344 213.285156 C 180.421875 215.855469 176.222656 218.34375 172.023438 220.828125 C 172.203125 221.84375 172.34375 222.636719 172.554688 223.835938 C 177.0625 221.167969 181.398438 218.605469 185.765625 216.019531 Z M 193.789062 228.476562 C 190.839844 232.054688 187.972656 235.542969 185.03125 239.117188 C 185.800781 239.796875 186.34375 240.28125 187.019531 240.890625 C 189.652344 237.421875 192.265625 233.976562 194.980469 230.402344 C 194.742188 230.015625 194.367188 229.40625 193.789062 228.476562 Z M 73.683594 154.945312 C 71.800781 152.050781 69.738281 148.878906 67.664062 145.6875 C 66.839844 146.246094 66.097656 146.738281 65.429688 147.191406 C 67.453125 150.476562 69.1875 154.046875 72.054688 157.050781 C 72.675781 156.242188 73.132812 155.652344 73.683594 154.945312 Z M 148.363281 93.734375 C 149.121094 94.476562 149.65625 95 150.164062 95.5 C 153.585938 93.550781 156.902344 91.667969 160.53125 89.597656 C 160.175781 88.871094 159.824219 88.136719 159.332031 87.097656 C 155.546875 89.394531 152.125 91.460938 148.363281 93.734375 Z M 231.539062 177.484375 C 232.585938 177.257812 233.339844 177.105469 234.089844 176.941406 C 233.65625 172.910156 233.234375 168.996094 232.796875 164.914062 C 231.976562 165.019531 231.28125 165.105469 230.242188 165.242188 C 230.679688 169.414062 231.101562 173.375 231.539062 177.484375 Z M 130.78125 226.789062 C 130.09375 226.878906 129.496094 226.949219 128.691406 227.054688 C 129.980469 230.882812 131.246094 234.613281 132.566406 238.511719 C 133.480469 238.207031 134.125 238 135.011719 237.707031 C 133.546875 233.933594 132.15625 230.355469 130.78125 226.789062 Z M 148.46875 65.757812 C 149 66.335938 149.59375 66.988281 150.269531 67.726562 C 152.125 64.457031 153.8125 61.484375 155.527344 58.476562 C 154.59375 57.984375 153.910156 57.625 153.140625 57.214844 C 151.566406 60.085938 150.058594 62.847656 148.46875 65.757812 Z M 99.171875 172.824219 C 102.398438 171.558594 105.792969 171.234375 108.726562 169.78125 C 108.726562 169.285156 108.742188 169.03125 108.71875 168.777344 C 108.699219 168.539062 108.648438 168.304688 108.566406 167.773438 C 105.109375 168.757812 101.761719 169.710938 98.253906 170.714844 C 98.671875 171.671875 98.917969 172.246094 99.171875 172.824219 Z M 115.21875 195.617188 C 114.472656 192.625 113.730469 189.664062 112.953125 186.59375 C 112.257812 186.804688 111.613281 187.003906 110.949219 187.207031 C 111.9375 190.28125 112.015625 193.484375 113.351562 196.351562 C 114.160156 196.035156 114.726562 195.816406 115.21875 195.617188 Z M 110.519531 211.761719 C 110.0625 211.429688 109.636719 211.132812 109.058594 210.710938 C 107.507812 214.007812 105.988281 217.207031 104.4375 220.503906 C 104.910156 220.773438 105.261719 220.960938 105.910156 221.328125 C 108.007812 218.371094 108.769531 214.804688 110.519531 211.761719 Z M 193.710938 95.683594 C 191.566406 93.140625 189.09375 95.132812 189.09375 95.132812 C 187.410156 96.628906 188.207031 98.578125 188.324219 98.847656 C 188.976562 99.746094 190.078125 100.445312 191.121094 100.457031 C 192.664062 100.480469 194.15625 98.96875 194.226562 97.292969 C 194.253906 96.722656 194.054688 96.164062 193.710938 95.683594 Z M 118.628906 97.414062 C 117.019531 95.15625 114.832031 96.277344 114.527344 96.445312 C 113.816406 96.996094 113.230469 97.753906 113.09375 98.472656 C 112.839844 99.792969 113.335938 100.710938 114.832031 101.582031 C 115.539062 101.878906 116.679688 101.996094 118.175781 101.03125 C 118.894531 100.378906 119.261719 99.605469 119.148438 98.8125 C 119.085938 98.347656 118.894531 97.859375 118.628906 97.414062 Z M 113.863281 153.011719 C 114.332031 153.304688 116.398438 153.300781 116.398438 153.300781 L 117.835938 141.492188 L 115.515625 141.046875 Z M 213.34375 140.84375 C 213.34375 141.789062 213.34375 142.636719 213.34375 143.582031 C 217.328125 142.4375 221.292969 141.292969 225.421875 140.109375 L 225.429688 137.355469 C 221.351562 138.535156 217.355469 139.683594 213.34375 140.84375 Z M 246.226562 132.589844 C 246.402344 136.632812 246.578125 140.546875 246.753906 144.597656 C 247.304688 144.636719 247.855469 144.675781 248.625 144.726562 L 247.734375 132.101562 C 247.296875 132.242188 246.882812 132.375 246.226562 132.589844 Z M 186.066406 121.339844 C 185.539062 121.71875 185.214844 121.960938 184.691406 122.339844 L 191.277344 129.8125 C 192.050781 129.027344 192.566406 128.507812 193.019531 128.046875 C 190.84375 125.34375 188.523438 123.230469 186.066406 121.339844 Z M 218.804688 89.535156 C 218.699219 89.695312 218.5625 89.808594 218.410156 89.910156 L 217.039062 91.207031 C 220.152344 94.5625 222.847656 98.0625 226.453125 100.734375 C 226.871094 100.097656 227.1875 99.617188 227.503906 99.128906 C 224.554688 95.882812 221.726562 92.753906 218.804688 89.535156 Z M 218.804688 89.535156 " fill-opacity="1" fill-rule="nonzero"/><g clip-path="url(#bc3ce27f20)"><path fill="#fdae23" d="M 203.5 77.214844 L 213.578125 77.214844 L 213.578125 88.667969 L 203.5 88.667969 Z M 203.5 77.214844 " fill-opacity="1" fill-rule="nonzero"/></g></svg>