<svg xmlns="http://www.w3.org/2000/svg" xmlns:xlink="http://www.w3.org/1999/xlink" width="764" zoomAndPan="magnify" viewBox="0 0 573 323.999988" height="432" preserveAspectRatio="xMidYMid meet" version="1.0"><defs><clipPath id="6d91753887"><path d="M 157.863281 40.144531 L 162.613281 40.144531 L 162.613281 46.386719 L 157.863281 46.386719 Z M 157.863281 40.144531 " clip-rule="nonzero"/></clipPath></defs><path fill="#f16247" d="M 484.457031 263.476562 L 422.722656 263.597656 C 422.484375 261.808594 421.769531 257.996094 419.148438 252.15625 C 414.144531 241.308594 405.441406 229.871094 394.597656 219.859375 C 365.28125 192.804688 324.878906 178.027344 281.140625 178.148438 C 237.285156 178.265625 197.121094 193.28125 167.925781 220.453125 C 157.078125 230.585938 148.378906 242.023438 143.492188 252.871094 C 140.871094 258.710938 140.15625 262.523438 139.917969 264.3125 L 78.183594 264.429688 C 78.421875 161.226562 168.996094 77.328125 280.785156 77.089844 C 392.570312 76.730469 483.621094 160.035156 484.457031 263.476562 Z M 350.621094 71.367188 C 352.648438 74.226562 356.105469 76.851562 361.109375 79.351562 C 365.757812 81.738281 370.167969 82.570312 374.097656 81.976562 C 378.152344 81.257812 381.371094 79.589844 383.871094 76.96875 C 386.375 74.347656 388.996094 69.9375 391.855469 63.859375 L 411.757812 23.101562 L 390.070312 19.171875 L 374.933594 60.046875 C 373.382812 63.265625 371.953125 65.410156 370.523438 66.363281 C 369.09375 67.316406 367.542969 67.433594 365.875 66.480469 C 364.804688 65.886719 364.089844 65.289062 363.730469 64.574219 C 363.253906 63.382812 363.015625 62.191406 363.253906 60.882812 C 363.375 59.570312 365.636719 46.9375 366.710938 44.554688 L 349.191406 45.863281 C 347.523438 50.15625 347.285156 58.378906 347.523438 61.835938 C 347.523438 65.289062 348.597656 68.507812 350.621094 71.367188 Z M 429.636719 53.015625 C 437.261719 51.347656 444.53125 52.777344 451.324219 57.1875 C 458.238281 61.714844 461.695312 67.316406 461.574219 73.75 C 461.457031 80.304688 458 87.21875 451.085938 94.488281 C 446.082031 99.851562 441.195312 103.546875 436.308594 105.929688 C 431.421875 108.191406 426.65625 109.382812 421.769531 109.144531 C 416.882812 109.027344 412.117188 107.359375 407.46875 104.378906 C 402.820312 101.28125 399.601562 97.945312 398.171875 94.25 C 396.625 90.554688 396.625 86.382812 398.054688 81.617188 C 399.484375 76.851562 402.703125 71.84375 407.707031 66.480469 C 414.621094 59.210938 422.007812 54.683594 429.636719 53.015625 Z M 417.003906 93.652344 C 419.742188 95.441406 422.84375 95.917969 426.179688 94.964844 C 429.515625 94.011719 433.570312 91.03125 438.453125 85.90625 C 442.507812 81.617188 444.652344 78.042969 444.890625 74.945312 C 445.128906 71.964844 443.9375 69.582031 441.195312 67.792969 C 438.574219 66.125 435.59375 65.765625 432.136719 66.71875 C 428.683594 67.671875 424.75 70.535156 420.460938 75.0625 C 416.167969 79.589844 413.785156 83.40625 413.425781 86.503906 C 413.1875 89.484375 414.382812 91.984375 417.003906 93.652344 Z M 502.09375 128.453125 C 499.949219 130.835938 497.328125 132.148438 494.230469 132.503906 C 492.203125 132.742188 489.9375 132.265625 487.4375 131.195312 C 489.699219 134.53125 490.652344 137.75 490.414062 140.609375 C 489.582031 151.570312 480.046875 156.21875 469.917969 154.671875 C 458.59375 153.003906 447.394531 143.46875 441.078125 134.410156 C 437.738281 129.644531 435 126.664062 439.167969 122.136719 C 441.554688 119.632812 444.175781 117.25 446.679688 114.746094 C 456.570312 105.09375 466.34375 95.320312 476.113281 85.667969 L 499.355469 107.359375 C 503.167969 110.933594 505.3125 114.628906 505.550781 118.441406 C 505.789062 122.375 504.714844 125.710938 502.09375 128.453125 Z M 476.828125 131.910156 C 476.589844 130.359375 475.398438 128.570312 473.253906 126.546875 L 464.671875 115.699219 L 455.019531 125.832031 L 465.746094 134.648438 C 467.890625 136.675781 469.679688 137.628906 471.347656 137.75 C 472.898438 137.75 474.328125 137.152344 475.519531 135.960938 C 476.589844 134.769531 476.949219 133.457031 476.828125 131.910156 Z M 489.582031 115.34375 C 489.460938 114.03125 488.390625 112.484375 486.601562 110.695312 L 480.167969 105.09375 L 473.96875 113.199219 L 479.332031 118.203125 C 481.238281 119.992188 482.90625 120.945312 484.335938 120.945312 C 485.769531 120.945312 486.960938 120.347656 488.152344 119.15625 C 489.222656 117.964844 489.699219 116.65625 489.582031 115.34375 Z M 489.582031 115.34375 " fill-opacity="1" fill-rule="nonzero"/><path fill="#fbc31a" d="M 463.957031 263.476562 L 422.84375 263.597656 C 422.605469 261.808594 421.890625 257.996094 419.265625 252.15625 C 414.261719 241.308594 405.5625 229.871094 394.71875 219.859375 C 365.398438 192.804688 325 178.027344 281.261719 178.148438 C 237.523438 178.265625 197.242188 193.28125 168.042969 220.453125 C 157.199219 230.585938 148.5 242.023438 143.613281 252.871094 C 140.992188 258.710938 140.277344 262.523438 140.035156 264.3125 L 98.683594 264.550781 C 98.800781 247.03125 102.734375 229.511719 110.363281 212.589844 C 118.703125 194.238281 131.457031 176.597656 147.425781 161.820312 C 182.703125 129.046875 230.015625 110.816406 280.785156 110.695312 C 331.554688 110.578125 379.105469 128.453125 414.5 160.988281 C 430.46875 175.644531 443.339844 193.164062 451.800781 211.515625 C 459.667969 228.4375 463.71875 245.957031 463.957031 263.476562 Z M 527.71875 136.078125 L 535.105469 154.910156 L 514.371094 164.085938 L 491.128906 173.738281 L 486.125 165.039062 L 506.386719 150.023438 Z M 481.476562 164.679688 L 488.984375 177.789062 L 472.898438 181.367188 L 469.917969 171.234375 Z M 481.476562 164.679688 " fill-opacity="1" fill-rule="nonzero"/><path fill="#64c8d0" d="M 443.339844 263.597656 L 422.722656 263.714844 C 422.484375 261.925781 421.769531 258.113281 419.148438 252.273438 C 414.144531 241.429688 405.441406 229.988281 394.597656 219.976562 C 365.28125 192.925781 324.878906 178.148438 281.140625 178.265625 C 237.285156 178.386719 197.121094 193.402344 167.925781 220.574219 C 157.078125 230.703125 148.378906 242.144531 143.492188 252.988281 C 140.871094 258.828125 140.15625 262.640625 139.917969 264.429688 L 119.300781 264.550781 C 119.417969 254.417969 122.042969 243.695312 126.925781 232.847656 C 133.601562 218.191406 144.207031 203.769531 157.675781 191.257812 C 189.851562 161.226562 233.710938 144.660156 281.023438 144.539062 C 328.335938 144.421875 372.191406 160.75 404.609375 190.542969 C 418.074219 202.9375 428.800781 217.238281 435.59375 231.894531 C 440.480469 242.742188 443.222656 253.347656 443.339844 263.597656 Z M 65.3125 137.988281 L 76.039062 148.949219 L 83.667969 134.292969 L 89.269531 145.613281 C 88.910156 148.472656 88.316406 150.855469 87.480469 152.644531 C 86.765625 154.433594 85.691406 155.980469 84.261719 157.410156 C 81.28125 160.273438 77.828125 161.34375 73.773438 160.511719 C 69.722656 159.675781 64.957031 156.457031 59.355469 150.738281 C 54.109375 145.375 51.011719 140.726562 50.296875 136.554688 C 49.464844 132.503906 50.535156 129.046875 53.277344 126.425781 C 55.183594 124.640625 57.210938 123.6875 59.355469 123.566406 C 61.617188 123.445312 63.882812 124.164062 66.386719 125.59375 L 75.800781 110.933594 C 71.75 108.3125 67.816406 106.523438 64.242188 105.808594 C 60.546875 105.09375 57.210938 105.214844 53.871094 106.40625 C 50.65625 107.597656 46.722656 110.339844 42.191406 114.746094 C 37.546875 119.277344 34.683594 123.804688 33.613281 128.214844 C 32.300781 133.933594 32.777344 139.773438 35.042969 145.734375 C 37.425781 151.8125 41.359375 157.648438 46.960938 163.371094 C 52.324219 168.851562 57.925781 172.785156 63.644531 175.40625 C 69.484375 177.910156 74.964844 178.742188 80.089844 177.910156 C 85.214844 177.074219 90.222656 174.214844 94.988281 169.449219 C 98.921875 165.636719 101.664062 161.703125 103.449219 157.648438 C 105.117188 153.71875 106.191406 148.234375 106.785156 141.324219 L 85.453125 109.742188 Z M 131.574219 120.585938 L 113.222656 128.332031 L 81.402344 72.796875 L 108.574219 59.6875 C 112.984375 56.589844 116.679688 54.683594 119.539062 53.96875 C 122.398438 53.253906 125.140625 53.492188 127.882812 54.804688 C 130.621094 56.113281 132.886719 58.496094 134.675781 61.714844 C 136.222656 64.574219 137.058594 67.433594 137.175781 70.296875 C 137.175781 73.15625 136.582031 75.898438 135.390625 78.519531 C 134.554688 80.1875 133.363281 81.976562 131.457031 84 C 133.480469 83.523438 135.152344 83.285156 136.222656 83.40625 C 136.9375 83.523438 138.25 83.882812 140.035156 84.597656 C 141.824219 85.3125 143.015625 85.90625 143.851562 86.503906 L 161.847656 98.777344 L 142.777344 114.746094 L 126.332031 97.347656 C 124.1875 95.917969 122.636719 95.203125 121.566406 95.082031 C 120.132812 94.964844 118.703125 95.441406 117.394531 96.277344 L 116.082031 97.109375 Z M 116.679688 83.285156 C 117.394531 82.808594 118.464844 81.738281 120.132812 79.949219 C 120.96875 79.113281 121.445312 78.042969 121.566406 76.730469 C 121.683594 75.421875 121.445312 74.226562 120.851562 73.035156 C 119.894531 71.367188 118.703125 70.414062 117.273438 70.175781 C 115.84375 69.9375 113.816406 70.652344 111.195312 72.558594 L 100.945312 78.160156 L 110.71875 87.457031 Z M 209.515625 74.824219 L 201.414062 59.808594 L 173.882812 69.460938 L 170.308594 59.332031 L 197.359375 54.566406 L 191.402344 40.144531 L 166.613281 48.84375 L 163.753906 40.621094 L 190.449219 31.207031 L 184.847656 15.238281 L 142.539062 39.429688 L 164.585938 92.460938 Z M 234.1875 67.316406 L 215.117188 73.988281 L 227.15625 2.722656 L 255.996094 0.9375 L 276.492188 67.195312 L 258.855469 67.195312 L 256.113281 56.234375 L 236.925781 56.234375 Z M 235.019531 41.574219 L 252.660156 42.050781 L 246.582031 18.214844 Z M 295.441406 15.59375 L 293.296875 66.957031 L 312.246094 69.582031 L 314.035156 18.8125 L 331.671875 24.292969 L 331.195312 3.558594 L 275.0625 0.101562 L 275.539062 19.050781 Z M 295.441406 15.59375 " fill-opacity="1" fill-rule="nonzero"/><path fill="#faf3ec" d="M 23.839844 246.316406 C 10.851562 249.535156 0.00390625 260.496094 1.078125 272.296875 C 2.03125 283.972656 14.1875 293.152344 27.175781 295.652344 C 40.167969 298.15625 53.753906 295.175781 66.148438 290.886719 C 74.847656 308.40625 98.324219 319.128906 119.539062 315.4375 C 127.167969 314.125 134.4375 311.144531 142.183594 310.429688 C 151.835938 309.597656 161.371094 312.457031 171.023438 313.292969 C 185.324219 314.601562 200.222656 311.265625 212.140625 304.234375 C 219.886719 299.707031 226.796875 293.03125 228.226562 284.808594 C 229.65625 276.585938 223.816406 267.289062 214.523438 266.21875 C 222.746094 267.410156 230.609375 260.734375 231.683594 253.464844 C 232.757812 246.195312 228.347656 238.925781 222.148438 233.921875 C 207.132812 221.648438 181.152344 222.003906 166.496094 234.515625 C 153.863281 220.929688 132.648438 214.019531 112.984375 216.761719 C 104.761719 217.953125 96.539062 220.929688 91.292969 226.53125 C 86.050781 232.132812 84.5 240.832031 89.269531 246.910156 C 86.050781 241.785156 78.421875 239.164062 72.105469 240.953125 C 61.976562 243.933594 65.671875 250.488281 54.109375 248.578125 C 43.265625 246.910156 35.042969 243.574219 23.839844 246.316406 Z M 336.917969 261.449219 C 337.988281 268.71875 344.664062 274.441406 352.171875 277.417969 C 359.796875 280.398438 368.140625 280.875 376.484375 281.472656 C 373.742188 295.175781 384.46875 309.953125 399.839844 313.53125 C 415.097656 317.105469 432.851562 309 438.214844 295.890625 C 456.09375 317.9375 494.945312 323.898438 520.210938 308.40625 C 526.644531 304.472656 532.484375 298.871094 533.796875 292.078125 C 535.105469 285.285156 530.457031 277.300781 522.710938 276.226562 C 530.816406 278.015625 539.160156 279.683594 547.5 278.96875 C 555.84375 278.253906 564.304688 274.679688 568.238281 268.125 C 573.003906 260.019531 569.070312 249.292969 560.847656 243.574219 C 552.625 237.855469 541.421875 236.664062 531.054688 238.09375 C 520.804688 239.523438 511.152344 243.574219 501.738281 247.386719 C 512.464844 243.933594 517.707031 231.894531 514.25 222.363281 C 510.792969 212.707031 500.308594 206.035156 489.222656 203.652344 C 478.019531 201.386719 466.34375 202.9375 455.378906 205.796875 C 445.605469 208.300781 435.59375 212.351562 429.875 219.738281 C 424.152344 227.246094 424.628906 238.925781 433.210938 243.8125 C 424.511719 238.925781 419.863281 233.085938 408.066406 234.515625 C 397.578125 235.710938 391.378906 247.148438 381.964844 247.386719 C 371.476562 247.746094 365.042969 238.449219 352.765625 242.144531 C 343.472656 245.003906 335.605469 252.75 336.917969 261.449219 Z M 336.917969 261.449219 " fill-opacity="1" fill-rule="nonzero"/><g clip-path="url(#6d91753887)"><path fill="#64c8d0" d="M 157.863281 40.144531 L 162.613281 40.144531 L 162.613281 46.378906 L 157.863281 46.378906 Z M 157.863281 40.144531 " fill-opacity="1" fill-rule="nonzero"/></g></svg>